<svg width="28" height="28" viewBox="0 0 28 28" fill="none" xmlns="http://www.w3.org/2000/svg">
<path d="M14 0.1875C11.2682 0.1875 8.59765 0.997589 6.32619 2.51533C4.05474 4.03306 2.28436 6.19028 1.23892 8.71418C0.193485 11.2381 -0.0800488 14.0153 0.45291 16.6947C0.985868 19.374 2.30138 21.8352 4.23309 23.7669C6.16481 25.6986 8.62596 27.0141 11.3053 27.5471C13.9847 28.0801 16.7619 27.8065 19.2858 26.7611C21.8097 25.7157 23.9669 23.9453 25.4847 21.6738C27.0024 19.4024 27.8125 16.7319 27.8125 14C27.8086 10.3379 26.3522 6.82687 23.7626 4.23736C21.1731 1.64785 17.6621 0.191367 14 0.1875ZM14 25.6875C11.6884 25.6875 9.42878 25.002 7.50678 23.7178C5.58478 22.4336 4.08676 20.6082 3.20216 18.4726C2.31756 16.337 2.08611 13.987 2.53708 11.7199C2.98804 9.45273 4.10117 7.37022 5.7357 5.73569C7.37022 4.10116 9.45273 2.98804 11.7199 2.53707C13.987 2.08611 16.337 2.31756 18.4726 3.20216C20.6082 4.08676 22.4336 5.58477 23.7178 7.50677C25.002 9.42877 25.6875 11.6884 25.6875 14C25.684 17.0986 24.4515 20.0694 22.2604 22.2604C20.0694 24.4515 17.0986 25.684 14 25.6875Z" fill="black"/>
</svg>
